<?xml version="1.0" encoding="UTF-8"?>
<svg width="251px" height="121px" viewBox="0 0 251 121" version="1.1" xmlns="http://www.w3.org/2000/svg" xmlns:xlink="http://www.w3.org/1999/xlink">
    <!-- Generator: Sketch 41.1 (35376) - http://www.bohemiancoding.com/sketch -->
    <title>Page 1</title>
    <desc>Created with Sketch.</desc>
    <defs>
        <polygon id="path-1" points="250.607749 120.983232 250.607749 0.440115 0.000101619433 0.440115 0.000101619433 120.983232"></polygon>
    </defs>
    <g id="Page-1" stroke="none" stroke-width="1" fill="none" fill-rule="evenodd">
        <g transform="translate(0.000000, -1.000000)">
            <g id="Group-3" transform="translate(0.000000, 0.577467)">
                <mask id="mask-2" fill="white">
                    <use xlink:href="#path-1"></use>
                </mask>
                <g id="Clip-2"></g>
                <path d="M246.158952,9.690765 C246.008555,9.437615 245.844948,9.19158167 245.670162,8.95368167 C241.563721,3.39353167 235.752106,0.455365 228.862308,0.455365 L16.5813445,0.440115 C12.1202514,0.440115 8.07783036,2.102365 4.84938097,5.289615 C1.67682227,8.46263167 0.000101619433,12.4184817 0.000101619433,16.751515 L0.107818219,62.8105817 C0.107818219,68.7977317 2.36072105,74.1992817 6.59926761,78.4052317 C10.826636,82.6355817 16.2165308,84.8712317 22.1815915,84.8712317 C22.1815915,84.8712317 25.3765065,84.8752983 31.0245146,84.8752983 C32.82013,84.8752983 34.0080611,85.6276317 34.0080611,87.2329483 C34.4704296,106.353398 49.2926401,120.983232 68.0790247,120.983232 C86.6835105,120.983232 101.819725,105.840998 101.819725,87.2268483 C101.819725,80.0471483 99.5871462,73.3859483 95.7875955,67.900015 C94.8445672,66.5376817 95.6798789,64.041765 97.9348142,64.041765 L208.189867,64.041765 C213.107231,64.041765 217.027709,59.8866483 217.093762,55.1337317 C217.093762,54.3295483 217.34781,52.460915 219.47877,52.460915 L228.862308,52.460915 C235.579353,52.460915 241.301543,49.7352317 245.405952,44.5847983 C248.906741,40.1988983 250.607851,33.9148817 250.607851,25.373865 C250.607851,19.9285983 249.110996,14.6520983 246.158952,9.690765" id="Fill-1" fill="#E84539" mask="url(#mask-2)"></path>
            </g>
            <path d="M96.421396,9.90812833 L109.879874,9.90812833 L109.879874,41.479695 C109.879874,45.4030117 108.618777,48.7559783 106.096582,51.538595 C103.556096,54.320195 100.506497,55.710995 96.9508332,55.710995 L75.750987,55.710995 C72.1932907,55.710995 69.1548696,54.320195 66.6326753,51.538595 C64.0921895,48.7559783 62.8199142,45.4030117 62.8199142,41.479695 L62.8199142,9.90812833 L76.2783919,9.90812833 L76.2783919,35.0096283 C76.2783919,37.5096117 76.6005255,39.655795 77.2468251,41.446145 C78.0668939,43.2354783 79.5241166,44.130145 81.6154445,44.130145 L91.0863757,44.130145 C93.1766874,44.130145 94.6328939,43.2354783 95.4549951,41.446145 C96.0992623,39.655795 96.421396,37.5096117 96.421396,35.0096283 L96.421396,9.90812833 Z" id="Fill-4" fill="#FEFEFE"></path>
            <path d="M130.960012,55.7111983 L117.501534,55.7111983 L117.501534,24.172165 C117.501534,20.2488483 118.762632,16.8938483 121.284826,14.1122483 C123.80702,11.3296317 126.856619,9.940865 130.432607,9.940865 L141.720494,9.940865 C146.216138,9.940865 149.754526,11.9772483 152.334644,16.0540817 C154.915777,11.9772483 158.442988,9.940865 162.919324,9.940865 L174.23668,9.940865 C177.795393,9.940865 180.833814,11.3296317 183.356008,14.1122483 C185.878202,16.8938483 187.137267,20.2488483 187.137267,24.172165 L187.137267,55.7111983 L173.709275,55.7111983 L173.709275,27.9897483 C173.180854,23.6760317 170.689146,21.5196817 166.233134,21.5196817 C161.795413,21.5196817 159.302688,23.6760317 158.755976,27.9897483 L158.755976,55.7111983 L145.592194,55.7111983 L145.592194,27.9897483 C145.103405,23.6760317 142.668603,21.5196817 138.290838,21.5196817 C133.891733,21.5196817 131.448802,23.6760317 130.960012,27.9897483 L130.960012,55.7111983 Z" id="Fill-6" fill="#FEFEFE"></path>
            <path d="M224.199805,32.5186933 C226.210854,32.5186933 227.472967,31.90361 227.981064,30.67446 C228.371283,29.4676767 228.567409,28.13991 228.567409,26.6962433 C228.567409,25.29426 228.391607,24.1067933 228.040004,23.13791 C227.53089,22.0602433 226.251502,21.5193767 224.199805,21.5193767 L211.092931,21.5193767 C210.291153,21.5193767 209.606238,21.83251 209.041234,22.45776 C208.493506,23.08301 208.219133,23.7306267 208.219133,24.3995933 L208.219133,32.5186933 L224.199805,32.5186933 Z M228.862105,9.94056 C232.886234,9.94056 236.102489,11.5682433 238.507821,14.8246267 C240.637765,18.4053267 241.703753,22.1141267 241.703753,25.9510267 C241.703753,32.3346767 240.618457,36.88426 238.448882,39.6028267 C236.04355,42.62131 232.848635,44.1300433 228.862105,44.1300433 L208.189664,44.1300433 L208.189664,55.7108933 L194.760655,55.7108933 L194.760655,18.25181 C194.760655,15.9470267 195.494348,13.9828267 196.960716,12.3663267 C198.427085,10.7477933 200.195263,9.94056 202.266267,9.94056 L228.862105,9.94056 Z" id="Fill-8" fill="#FEFEFE"></path>
            <path d="M22.4655162,22.9493183 C22.4655162,21.736435 23.259164,20.7065517 24.969419,20.7065517 C26.8239737,20.7065517 40.4785769,20.708585 40.4785769,20.708585 C42.5323057,20.708585 42.8239534,22.0892183 42.8239534,23.3854683 C42.8239534,24.7213683 42.7995648,27.1817017 42.7995648,28.2400517 C42.7995648,29.2353683 42.4926741,30.6678517 40.4785769,30.6678517 L22.4665324,30.6475183 L22.4655162,22.9493183 Z M68.0062652,62.6806517 C68.0042328,62.6806517 25.6096215,62.673535 25.6096215,62.673535 C24.1473178,62.673535 22.5366498,62.7701183 22.5366498,60.2721683 C22.5366498,56.5999683 22.5752652,41.311335 22.5752652,41.311335 L40.463334,41.311335 C42.0221761,41.311335 42.9337024,42.122635 42.9337024,43.681185 L42.8920385,55.5019683 L56.6624879,55.5019683 L56.7021194,44.5209517 C56.7021194,40.0171183 55.3495648,36.4110017 51.188249,33.9964183 C54.1972004,31.5106683 56.5974514,28.0062183 56.5974514,23.023535 C56.5974514,18.8775683 55.1605526,16.0400517 52.9493138,13.9274183 C50.5175607,11.3562683 47.601083,9.777385 43.5373219,9.777385 L16.4303381,9.777385 C14.31767,9.777385 12.7811842,10.6059683 11.2670547,12.101485 C9.77324899,13.595985 8.7499413,15.9343183 8.7499413,17.8670017 L8.69405061,63.094435 C8.69405061,66.7229183 9.54155668,70.1592517 12.131836,72.7314183 C14.7028077,75.3025683 18.4109008,76.413785 22.0366822,76.413785 C22.0366822,76.413785 67.9341154,76.444285 67.9442773,76.444285 C74.0444919,76.444285 78.9903097,81.3924017 78.9903097,87.4954517 C78.9903097,91.3201517 77.04633,94.6904017 74.0942854,96.674935 C72.3210263,97.8929017 70.1748239,98.608635 67.8609494,98.608635 C61.8511761,98.608635 56.7956093,93.3850017 56.6624879,87.4049683 C56.6208239,87.1142017 56.6624879,83.7531017 56.6624879,83.7531017 L42.7690789,83.7531017 L42.7690789,87.6886183 C42.7690789,101.415652 54.2226053,112.537985 67.9442773,112.537985 C81.6649332,112.537985 92.7881964,101.409552 92.7881964,87.6825183 C92.7881964,73.9544683 81.7269211,62.6806517 68.0062652,62.6806517 L68.0062652,62.6806517 Z" id="Fill-10" fill="#FEFEFE"></path>
        </g>
    </g>
</svg>